<?xml version="1.0" encoding="utf-8"?>
<!-- Generator: Adobe Illustrator 23.0.5, SVG Export Plug-In . SVG Version: 6.00 Build 0)  -->
<svg version="1.1" id="Layer_1" xmlns="http://www.w3.org/2000/svg" xmlns:xlink="http://www.w3.org/1999/xlink" x="0px" y="0px"
	 viewBox="0 0 1121.2 415.7" style="enable-background:new 0 0 1121.2 415.7;" xml:space="preserve">
<style type="text/css">
	.st0{fill:#FFFFFF;}
</style>
<g>
	<path class="st0" d="M206,365.3l-95.8-96.5l-0.4,0.3c0.7,1,1.2,2,1.9,2.9c11.8,16,23.6,31.9,35.5,47.8c0.7,0.7,1.6,1.3,2.6,1.5
		c2.1,0.4,3.7,2.3,3.6,4.2c-0.2,2-2,3.5-4.1,3.4c-1.9,0-3.4-1.6-3.4-3.5c0-0.2,0-0.5,0.1-0.7c0.2-1.5-0.2-2.9-1.2-4
		c-8.4-11.2-16.7-22.6-25-33.8c-6.3-8.5-12.5-17-18.8-25.4c-0.4-0.5-0.9-1-1.4-1.5l-2.3,1.2c-1.4-1.9-2.9-3.7-4.2-5.5
		c-0.2-0.2-0.2-1.1,0-1.1c1.3-1,0.7-1.9,0-2.8c-6.4-8.6-12.8-17.3-19.3-25.9c-0.7-0.8-1.7-1.4-2.8-1.7c-1.9-0.6-3-2.5-2.7-4.4
		c0.3-1.9,2.1-3.2,4-2.9c2,0.1,3.7,1.5,3.3,3.5c-0.8,3.3,1.1,5.1,2.7,7.3c2.4,3.2,4.7,6.4,7.1,9.7c0.4,0.6,1,1.1,1.6,1.4
		c-3.8-10.3-6.3-20.6-6-31.6c0.2-11,2.9-21.3,7.5-31.2l-0.5-0.2c-1.2,1.6-2.4,3.3-3.5,5c-4.2,6.2-8.6,12.3-12.7,18.6
		c-0.4,0.8-0.6,1.8-0.4,2.8c0.2,1.9,0.1,3.7-1.7,4.6c-1.3,0.6-2.7,0.7-4.1,0.3c-1.9-0.7-2.8-2.3-2.4-4.4c0.4-1.9,1.5-2.9,3.5-3.3
		c1.1-0.2,2-0.8,2.8-1.6c6.8-9.9,13.7-19.7,20.4-29.7c0.4-0.7-0.2-2.1-0.4-3.2l-0.8-0.1l4.4-6.4l2.5,1.4c1.7-2.3,3.5-4.6,5.2-6.8
		c7.2-9.6,14.3-19.3,21.4-28.9c1-1.1,1.4-2.7,1.1-4.2c-0.3-1.9,0.8-3.7,2.6-4.3c2.1-0.7,4.2,0.2,5.1,2c1,1.8,0.5,4.1-1.2,5.2
		c-0.3,0.2-0.7,0.6-1,0.5c-2.9-0.4-3.8,1.8-5.2,3.6c-7.1,9.5-14.2,19-21.2,28.5c-0.1,0.1-0.1,0.2,0.2,0.7L206.3,50.4l43.4,42.9
		c-0.5,0.6-0.9,1.1-1.4,1.5c-28.8,29.1-57.5,58.2-86.2,87.3c-3.8,3.7-7.4,7.6-10.8,11.7c-7.1,8.9-7,18.2,0.1,27.1
		c3.8,4.7,8.1,9.1,12.5,13.4c12.9,13.2,25.8,26.3,38.8,39.4c0.3,0.3,0.7,0.7,1.3,1.1c4.6-4.4,9.1-8.6,13.6-13
		c16.1-15.9,32.1-31.8,48.1-47.8c5-5,5.1-8,0.7-13.4c-2-2.5-4.6-4.6-6.6-6.7l-55.3,54.6c-0.9-0.8-1.5-1.3-2-1.9l-28.4-29.1
		c-3.7-3.8-5.6-8.2-3.4-13.4c0.8-2,2.4-3.7,3.9-5.1c22.1-22.2,44.2-44.3,66.3-66.3c7.3-7.3,14.7-14.6,22-22c1.3-1.4,2-1.2,3.3,0.1
		c12.2,12.8,24.5,25.5,36.8,38.3c1.2,1.2,2.3,2.5,3.4,3.7l0.4-0.3c-3.6-4.9-7.2-9.8-10.8-14.6c-3.1-4.2-6.2-8.5-9.5-12.5
		c-0.8-1.1-1.9-1.8-3.2-2.1c-2.3-0.5-3.9-2-3.7-4.3c0.2-2.4,2-3.9,4.6-3.7c2.2,0.2,4,2,3.5,4.2c-0.5,2.2,0.4,3.6,1.5,5.1
		c8.4,11.2,16.8,22.5,25.1,33.8c0.3,0.5,0.7,1,0.9,1.4l2.6-1.6c1.3,2,2.7,3.9,3.9,5.9c0.2,0.5,0,1.1-0.4,1.5c-1.4,0.9-1,1.8-0.2,2.9
		c6.6,9.5,13.2,19.2,19.8,28.8c0.8,1.2,1.6,2.2,3.4,2.3c2.3,0.2,3.6,2.2,3.3,4.7c-0.2,1.9-2.3,3.5-4.4,3.4c-2-0.1-4.2-2-3.7-4
		c0.8-2.9-0.8-4.6-2.2-6.6c-3-4.3-6-8.7-9-13.1c-0.4-0.7-1-1.1-1.6-1.6c6.7,18.9,5.7,37.5-2,56c0.4-0.4,0.8-0.8,1.1-1.2
		c2.9-3.8,5.6-7.7,8.6-11.6c0.8-0.9,1.1-2.1,0.7-3.3c-0.6-1.8-0.2-3.6,1.8-4.5c1.5-0.8,3.4-0.5,4.6,0.8c1.4,1.6,1.1,4.1-0.5,5.4
		c-0.4,0.3-0.9,0.6-1.4,0.7c-1.1,0.3-2.1,1-2.9,1.9c-6.4,8.6-12.8,17.1-19.2,25.8c-0.6,0.7-1.4,1.6-0.2,2.6c0.2,0.2,0.2,1.1,0,1.5
		c-1.2,1.8-2.5,3.5-4,5.4c-2.3-2.1-3.3-0.3-4.4,1.4c-8.2,11.2-16.5,22.5-24.9,33.7c-6.2,8.4-12.5,16.8-18.7,25.3
		c-0.6,0.9-0.7,2-0.7,3c0.1,2.6-1.1,4.2-3.4,4.4c-2,0.1-3.8-1.4-4.1-3.4c-0.2-2.1,1.5-3.8,3.7-4.2c0.9-0.2,1.7-0.7,2.3-1.3
		c12.8-17.2,25.6-34.5,38.3-51.7c0.8-1,1.4-2.1,1.8-3.3L206,365.3z"/>
	<g>
		<g>
			<g>
				<path class="st0" d="M471.4,202c0,12.8-3.7,23.4-10.8,30.7c-7.1,7.3-17.4,11.5-30.2,11.5c-11.6,0-21.8-3.9-29.1-10.8
					c-7.3-6.9-11.8-17-11.8-29.3c0-8.6,2.1-16.1,6-24.2l14.2,5.1c-3.4,6.9-5.3,14.9-4.4,22c1,7.1,4.9,13.4,13.2,17.1
					c6.7,2.2,14.5,2.2,21.7,0.6c3.6-1,7.2-3,9.9-5.8c2.7-2.8,4.4-6.4,4.4-10.5v-37.4l16.8-6L471.4,202L471.4,202z M438.4,160.8
					c0,2.6-0.9,4.7-2.6,6.2c-1.7,1.6-3.7,2.4-6,2.4c-2.4,0-4.4-0.8-6.1-2.4c-1.7-1.5-2.6-3.5-2.6-6.2c0-5.3,4-8.6,8.7-8.6
					C434.5,152.1,438.4,155.4,438.4,160.8z"/>
				<path class="st0" d="M539.2,216c0,3.9-0.5,7.4-1.3,10.8c-1.7,6.7-6.4,11.9-13,14.6c-3.7,1.5-8.3,2.2-13,2.3s-9.6-0.6-13.6-1.9
					c-3.7-1.2-6.7-2.7-9-4.3l5.8-13.4c2.1,1.3,4.4,2.4,6.9,3.4c2.4,0.9,5.8,1.6,8.9,1.5c3.2-0.1,6.2-1,8.2-3.3
					c1.6-1.7,2.6-4.4,2.8-7.9h-8.3c-3.4,0-7-0.2-10.5-1c-3.5-0.8-6.9-2.2-9.7-4.5c-4-3.3-6.2-8-7.2-13.6c-1.1-5.5-0.9-11.6-0.2-17.6
					c0.7-6,1.9-11.6,3.1-16h50.1V216z M501,182.4c-0.3,2.1-0.7,4.9-0.7,7.6c0,4.7,1.7,7.3,4.6,8.7c2.8,1.5,6.7,1.7,10.8,1.7h6.2
					v-18.1H501V182.4L501,182.4z"/>
				<path class="st0" d="M569,194.4c0,1.2,0,2.6,0.4,3.9c0.4,1.2,1.2,2.2,2.8,2.2h10.6v17.3h-10.7c-6,0-11.2-2-14.8-5.5
					c-3.6-3.5-5.8-8.5-5.8-14.6v-74.8l17.3-4.5v76L569,194.4L569,194.4z"/>
				<path class="st0" d="M620.8,197.4c0,5-1.5,10.7-5.3,14.6c-2.3,2.3-5.3,3.7-8.6,4.5c-3.3,0.8-6.7,1-10.1,1l-14.6,0.2v-17.3
					l18-0.2c1.7,0,2.5-1,2.9-2.2c0.4-1.2,0.4-2.7,0.4-3.9v-23.4l17.3-6V197.4L620.8,197.4z M603.4,147c0,2.6-0.9,4.7-2.6,6.2
					c-1.7,1.6-3.7,2.4-6,2.4c-2.4,0-4.4-0.8-6.1-2.4c-1.7-1.5-2.6-3.5-2.6-6.2c0-5.3,4-8.6,8.7-8.6S603.4,141.8,603.4,147z
					 M622.3,147c0,2.6-0.9,4.7-2.6,6.2c-1.7,1.6-3.7,2.4-6,2.4c-2.4,0-4.4-0.8-6.1-2.4c-1.7-1.5-2.6-3.5-2.6-6.2
					c0-5.3,4-8.6,8.7-8.6S622.3,141.8,622.3,147z"/>
				<path class="st0" d="M756.6,196.4c0.2,2,0.8,4,3.3,4h10.6v17.3h-10.6c-2.6,0-4.5-0.2-6.2-0.6c-1.7-0.4-3.5-1.1-5.7-2.4
					c-4.4,2.5-10.1,3-15.3,3h-38.1c-3.3,0-6.7-0.2-10-1c-3.3-0.8-6.5-2.3-9.3-4.6c-3-2.6-5.1-6.1-6.2-9.9c-1.2-3.8-1.7-8-1.7-12.1
					c0-7.5,1.5-15.1,6-21.8l13.3,5.7c-2.6,4.5-4.8,9.2-4.8,14.8c0,4.4,1.2,7.3,3.5,9.1c2.2,1.8,5.5,2.5,9.9,2.5H736
					c2.4,0,3.1-1.9,3.3-3.8v-72.4l17.3-5.9V196.4L756.6,196.4z M723.8,165.8c-4.4,0-7,0.1-8.7,0.3c-1.7,0.2-2.6,0.6-3.2,0.9
					c-1,0.6-1.5,1.8-1.7,2.9c-0.2,1.2-0.1,2.4,0,3.5l0.2,1.5h18.7v9.5h-30.3v-9.4h3.7c-0.1-1.5-0.1-2.8-0.1-4.2
					c0-4.2,0.8-8.5,4.1-11.1c1.5-1.2,3.3-2,5.6-2.4c2.4-0.4,5.2-0.5,9-0.5L723.8,165.8z"/>
				<path class="st0" d="M801.6,194.4c0,1.2,0,2.6,0.4,3.9c0.4,1.2,1.2,2.2,2.9,2.2h10.5v17.3h-7.1c-5.3,0-10.9-0.6-15.4-3
					c-4.4,2.5-10.1,3-15.3,3h-7.8v-17.3H781c1.4,0,2.2-0.7,2.7-1.7s0.6-2.1,0.6-3.3v-24.5l17.3-6L801.6,194.4L801.6,194.4z
					 M792,241.4c0,2.6-0.9,4.7-2.6,6.2c-1.7,1.6-3.7,2.4-6,2.4c-2.4,0-4.4-0.8-6.1-2.4c-1.7-1.5-2.6-3.5-2.6-6.2
					c0-5.3,4-8.6,8.7-8.6S792,236,792,241.4z M810.9,241.4c0,2.6-0.9,4.7-2.6,6.2c-1.7,1.6-3.7,2.4-6,2.4c-2.4,0-4.4-0.8-6.1-2.4
					c-1.7-1.5-2.6-3.5-2.6-6.2c0-5.3,4-8.6,8.7-8.6S810.9,236,810.9,241.4z"/>
				<path class="st0" d="M883.1,179c0,3.8,0,7,0,9.5v5.9c0,1.4,0,2.4,0,3v1.3c-0.1,0.2-0.1,0.3-0.1,0.4c-0.2,4.8-1.2,9.8-4.6,13.4
					c-3.3,3.3-8.2,5-13.2,5.2h-50.5v-17.3h15.7c-1.4-5.6-1.4-12.1-0.8-18.4c0.6-6.2,2-12.3,3.3-17H883L883.1,179L883.1,179z
					 M845,182.4c-0.3,2.1-0.7,4.9-0.7,7.6c0,4.4,1.6,7.1,4.2,8.5c2.5,1.5,6.1,1.9,10,1.9h4.4c1.5-0.1,2.4-1.1,2.7-2.4
					c0.3-1.3,0.4-2.9,0.4-4.4v-11.3L845,182.4L845,182.4z M865.9,147.1c0,2.6-0.9,4.7-2.6,6.2c-1.7,1.6-3.7,2.4-6,2.4
					c-2.4,0-4.4-0.8-6.1-2.4c-1.7-1.5-2.6-3.5-2.6-6.2c0-5.3,4-8.6,8.7-8.6S865.9,141.9,865.9,147.1z"/>
				<path class="st0" d="M913,210.4c0,1.2,0.1,2.7,0.3,4.1s0.6,2.7,1.4,3.5L901,228.4c-3.9-3.9-5.3-9.6-5.3-14.6v-89.6l17.3-5.8
					V210.4z"/>
				<path class="st0" d="M975.1,200.4v17.3h-13.9c-0.1,3.3-0.5,6.2-1.2,9.2c-1.9,7-6.7,12-13,14.6c-3.9,1.6-8.7,2.3-13.4,2.3
					s-9.4-0.6-13.2-1.9c-3.7-1.2-6.7-2.7-9-4.3l5.8-13.4c2.1,1.3,4.4,2.4,6.9,3.4c2.6,1,5.9,1.6,9,1.5s6.2-1,8.1-3.3
					c1.9-2,2.8-5.5,2.8-10.4v-44.4l17.3-5.9v35.4h13.8L975.1,200.4L975.1,200.4z"/>
				<path class="st0" d="M1034,169.3c6.6,2.5,13.1,6.1,17,12.5c1.9,3.4,2.6,7.3,2.4,11.2s-1.3,7.9-2.7,11.5
					c-1.7,4.7-3.8,9.3-6.1,13.4h-70.2v-17.3h61.6c0.9-1.8,1.4-3.5,1.4-5.2c0-1.7-0.4-3-1.3-4.2c-1.6-2.1-5.1-4.3-10.3-6.3L989,170.7
					l12.6-13.7L1034,169.3z M1025.8,241.1c0,2.6-0.9,4.7-2.6,6.2c-1.7,1.6-3.7,2.4-6,2.4c-2.4,0-4.4-0.8-6.1-2.4
					c-1.7-1.5-2.6-3.5-2.6-6.2c0-5.3,4-8.6,8.7-8.6C1021.9,232.5,1025.8,235.8,1025.8,241.1z"/>
			</g>
			<g>
				<path class="st0" d="M390.8,292.6c0,0.4,0,0.8,0.1,1.2c0.1,0.4,0.4,0.7,0.9,0.7h3.4v5.6h-3.4c-1.9,0-3.6-0.6-4.7-1.8
					s-1.8-2.7-1.8-4.7v-24l5.6-1.4L390.8,292.6L390.8,292.6z"/>
				<path class="st0" d="M405.2,291c0.7-1.4,1.5-2.7,2.4-3.8c0.7-1,1.6-1.9,2.7-2.6c1-0.7,2.1-1.2,3.3-1.2h15.2l0,0l0,0
					c0.4,1.2,0.6,2.7,0.8,4.3c0.2,1.6,0.2,3.4,0.3,5.1c0,0.4,0,0.8,0.1,1.2c0.1,0.4,0.4,0.7,0.9,0.7h3.4v5.6h-3.4
					c-0.9,0-1.6,0-2.2-0.2c-0.6-0.2-1.2-0.5-2-1c-0.1,0.1-0.2,0.1-0.3,0.2c-1.5,0.8-3.3,1-5.2,1H395v-5.6h4.7v-24.5l5.6-1.9V291
					L405.2,291L405.2,291z M415.8,288.5c-1,0-1.9,0.4-2.7,1c-0.8,0.6-1.6,1.4-2.2,2.1c-0.7,0.9-1.4,1.9-2,3H420c1.2,0,2.4,0,3.3-0.3
					c0.9-0.3,1.4-1.1,1.4-2.6c0-0.2,0-0.6,0-1.1c0-0.6-0.1-1.2-0.2-2h-8.7C415.8,288.6,415.8,288.5,415.8,288.5z"/>
				<path class="st0" d="M444.4,292.6c0,0.4,0,0.8,0.1,1.2c0.1,0.4,0.4,0.7,0.9,0.7h3.4v5.6h-2.2c-1.7,0-3.5-0.2-4.9-1
					c-1.4,0.8-3.2,1-4.9,1h-2.5v-5.6h3.6c0.4,0,0.7-0.2,0.9-0.5s0.2-0.7,0.2-1v-7.9l5.5-1.9L444.4,292.6L444.4,292.6z M443.7,277
					c0,0.8-0.3,1.5-0.8,2c-0.6,0.5-1.2,0.8-1.9,0.8c-0.8,0-1.4-0.2-2-0.8c-0.6-0.5-0.8-1.1-0.8-2c0-1.7,1.3-2.8,2.8-2.8
					C442.4,274.4,443.7,275.4,443.7,277z"/>
				<path class="st0" d="M458.9,291c0.7-1.4,1.5-2.7,2.4-3.8c0.7-1,1.6-1.9,2.7-2.6c1-0.7,2.1-1.2,3.3-1.2h15.2l0,0l0,0
					c0.4,1.2,0.6,2.7,0.8,4.3c0.2,1.6,0.2,3.4,0.3,5.1c0,0.4,0,0.8,0.1,1.2c0.1,0.4,0.4,0.7,0.9,0.7h3.4v5.6h-3.4
					c-0.9,0-1.6,0-2.2-0.2c-0.6-0.2-1.2-0.5-2-1c-0.1,0.1-0.2,0.1-0.3,0.2c-1.5,0.8-3.3,1-5.2,1h-26.2v-5.6h4.7v-24.5l5.6-1.9
					L458.9,291L458.9,291z M469.5,288.5c-1,0-1.9,0.4-2.7,1c-0.8,0.6-1.6,1.4-2.2,2.1c-0.7,0.9-1.4,1.9-2,3h11c1.2,0,2.4,0,3.3-0.3
					c0.9-0.3,1.4-1.1,1.4-2.6c0-0.2,0-0.6,0-1.1c0-0.6-0.1-1.2-0.2-2h-8.6V288.5L469.5,288.5z"/>
				<path class="st0" d="M498.1,293.8c0,1.6-0.5,3.4-1.7,4.7c-0.7,0.7-1.7,1.2-2.8,1.4s-2.2,0.3-3.2,0.3h-2.5v-5.6h3.6
					c0.5,0,0.8-0.3,0.9-0.7c0.1-0.4,0.1-0.9,0.1-1.2v-7.5l5.5-1.9L498.1,293.8L498.1,293.8z M496.7,307.8c0,0.8-0.3,1.5-0.8,2
					c-0.6,0.5-1.2,0.8-1.9,0.8c-0.8,0-1.4-0.2-2-0.8c-0.6-0.5-0.8-1.1-0.8-2c0-1.7,1.3-2.8,2.8-2.8S496.7,306,496.7,307.8z"/>
				<path class="st0" d="M541.3,293.4c0.1,0.6,0.3,1.3,1,1.3h3.4v5.6h-3.4c-0.8,0-1.4-0.1-2-0.2c-0.6-0.1-1.1-0.4-1.8-0.8
					c-1.4,0.8-3.3,1-4.9,1h-12.2c-1,0-2.1-0.1-3.2-0.3c-1.1-0.3-2.1-0.7-3-1.5c-1-0.8-1.6-2-2-3.2c-0.4-1.2-0.5-2.6-0.5-3.9
					c0-2.4,0.5-4.9,1.9-7l4.3,1.8c-0.8,1.4-1.5,3-1.5,4.7c0,1.4,0.4,2.3,1.1,2.9s1.8,0.8,3.2,0.8h12.9c0.8,0,1-0.6,1.1-1.2v-23.2
					l5.5-1.9L541.3,293.4L541.3,293.4z M530.7,283.5c-1.4,0-2.2,0-2.8,0.1c-0.6,0.1-0.8,0.2-1,0.3c-0.3,0.2-0.5,0.6-0.6,0.9
					c-0.1,0.4,0,0.8,0,1.1l0.1,0.5h6v3h-9.7v-3h1.2c0-0.5,0-0.9,0-1.4c0-1.3,0.3-2.7,1.3-3.6c0.5-0.4,1-0.6,1.8-0.8s1.7-0.2,2.9-0.2
					L530.7,283.5z"/>
				<path class="st0" d="M555.7,292.6c0,0.4,0,0.8,0.1,1.2c0.1,0.4,0.4,0.7,0.9,0.7h3.4v5.6h-2.3c-1.7,0-3.5-0.2-4.9-1
					c-1.4,0.8-3.2,1-4.9,1h-2.5v-5.6h3.6c0.4,0,0.7-0.2,0.9-0.5s0.2-0.7,0.2-1v-7.9l5.5-1.9V292.6z M552.6,307.9
					c0,0.8-0.3,1.5-0.8,2c-0.6,0.5-1.2,0.8-1.9,0.8c-0.8,0-1.4-0.2-2-0.8c-0.6-0.5-0.8-1.1-0.8-2c0-1.7,1.3-2.8,2.8-2.8
					C551.3,305,552.6,306,552.6,307.9z M558.7,307.9c0,0.8-0.3,1.5-0.8,2c-0.6,0.5-1.2,0.8-1.9,0.8c-0.8,0-1.4-0.2-2-0.8
					c-0.6-0.5-0.8-1.1-0.8-2c0-1.7,1.3-2.8,2.8-2.8S558.7,306,558.7,307.9z"/>
				<path class="st0" d="M581.9,287.8c0,1.2,0,2.2,0,3v1.9c0,0.4,0,0.8,0,1v0.4c0,0.1,0,0.1,0,0.1c-0.1,1.5-0.4,3.1-1.5,4.3
					c-1,1-2.6,1.6-4.2,1.7H560v-5.6h5c-0.4-1.8-0.4-3.9-0.2-5.9c0.2-2,0.6-3.9,1.1-5.5H582L581.9,287.8L581.9,287.8z M569.6,288.9
					c-0.1,0.7-0.2,1.6-0.2,2.4c0,1.4,0.5,2.3,1.3,2.7c0.8,0.5,2,0.6,3.2,0.6h1.4c0.5,0,0.8-0.4,0.9-0.8c0.1-0.4,0.1-0.9,0.1-1.4
					v-3.6L569.6,288.9L569.6,288.9z M576.4,277.5c0,0.8-0.3,1.5-0.8,2c-0.6,0.5-1.2,0.8-1.9,0.8c-0.8,0-1.4-0.2-2-0.8
					c-0.6-0.5-0.8-1.1-0.8-2c0-1.7,1.3-2.8,2.8-2.8C575.1,274.8,576.4,275.9,576.4,277.5z"/>
				<path class="st0" d="M591.5,297.9c0,0.4,0,0.9,0.1,1.3c0.1,0.4,0.2,0.9,0.4,1.1l-4.4,3.3c-1.2-1.2-1.7-3.1-1.7-4.7V270l5.6-1.9
					V297.9L591.5,297.9z"/>
				<path class="st0" d="M611.4,294.6v5.6h-4.5c0,1-0.2,2-0.4,2.9c-0.6,2.2-2.1,3.9-4.2,4.7c-1.2,0.5-2.8,0.7-4.3,0.7
					s-3-0.2-4.3-0.6c-1.2-0.4-2.1-0.9-2.9-1.4l1.9-4.3c0.7,0.4,1.4,0.8,2.2,1.1c0.8,0.3,1.9,0.5,2.9,0.5s2-0.3,2.6-1
					c0.6-0.6,0.9-1.8,0.9-3.3v-14.2l5.6-1.9v11.4h4.5V294.6z"/>
				<path class="st0" d="M630.3,284.6c2.1,0.8,4.2,2,5.5,4c0.6,1.1,0.8,2.3,0.8,3.6c-0.1,1.2-0.4,2.5-0.9,3.7c-0.6,1.5-1.2,3-2,4.3
					h-22.5v-5.6H631c0.3-0.6,0.4-1.1,0.4-1.7s-0.1-1-0.4-1.4c-0.5-0.7-1.6-1.4-3.3-2l-11.8-4.5l4.1-4.4L630.3,284.6z M627.7,307.8
					c0,0.8-0.3,1.5-0.8,2c-0.6,0.5-1.2,0.8-1.9,0.8c-0.8,0-1.4-0.2-2-0.8c-0.6-0.5-0.8-1.1-0.8-2c0-1.7,1.3-2.8,2.8-2.8
					S627.7,306,627.7,307.8z"/>
				<path class="st0" d="M657.2,291.6c-0.6,1.3-1.1,2.7-1.4,4.3c-0.2,1.5-0.2,3.1,0.4,4.5c0.7,1.8,2.3,3.3,4.1,4s4,0.9,5.9,0.2
					c2-0.6,3.7-2,4.8-4.4h-5.6l2.1-5.6h13.4v5.6h-4.3c-0.7,2.9-2.3,5.5-4.5,7.4s-5,3-8.3,3c-1.7,0-3.5-0.2-5.1-0.8
					c-1.6-0.6-3.2-1.5-4.6-2.8c-2.2-2.2-3.3-5.1-3.4-8.1c-0.2-3,0.6-6.1,1.9-8.9L657.2,291.6z M663.4,315.6c0,0.8-0.3,1.5-0.8,2
					c-0.6,0.5-1.2,0.8-1.9,0.8c-0.8,0-1.4-0.2-2-0.8c-0.6-0.5-0.8-1.1-0.8-2c0-1.7,1.3-2.8,2.8-2.8C662.1,313,663.4,314,663.4,315.6
					z M669.4,315.6c0,0.8-0.3,1.5-0.8,2c-0.6,0.5-1.2,0.8-1.9,0.8c-0.8,0-1.4-0.2-2-0.8c-0.6-0.5-0.8-1.1-0.8-2
					c0-1.7,1.3-2.8,2.8-2.8S669.4,314,669.4,315.6z"/>
				<path class="st0" d="M702.7,287.8c0,1.2,0,2.2,0,3v1.9c0,0.4,0,0.8,0,1v0.4c0,0.1,0,0.1,0,0.1c-0.1,1.5-0.4,3.1-1.5,4.3
					c-1,1-2.6,1.6-4.2,1.7h-16.2v-5.6h5c-0.4-1.8-0.4-3.9-0.2-5.9s0.6-3.9,1.1-5.5h16.1L702.7,287.8L702.7,287.8z M690.4,288.9
					c-0.1,0.7-0.2,1.6-0.2,2.4c0,1.4,0.5,2.3,1.3,2.7c0.8,0.5,2,0.6,3.2,0.6h1.4c0.5,0,0.8-0.4,0.9-0.8c0.1-0.4,0.1-0.9,0.1-1.4
					v-3.6L690.4,288.9L690.4,288.9z M697.2,277.5c0,0.8-0.3,1.5-0.8,2c-0.6,0.5-1.2,0.8-1.9,0.8c-0.8,0-1.4-0.2-2-0.8
					c-0.6-0.5-0.8-1.1-0.8-2c0-1.7,1.3-2.8,2.8-2.8C695.9,274.8,697.2,275.9,697.2,277.5z"/>
				<path class="st0" d="M743.6,291c0.7-1.4,1.5-2.7,2.4-3.8c0.7-1,1.6-1.9,2.7-2.6c1-0.7,2.1-1.2,3.3-1.2h15.2
					c0.4,1.2,0.7,2.7,0.8,4.2c0.2,1.5,0.2,3.1,0.2,4.5c0,0.2,0,0.4,0,0.7c0,0.6,0.1,1.2,0.4,1.6c0.2,0.2,0.4,0.3,0.7,0.3h3.4v5.6
					h-3.4c-0.9,0-1.6,0-2.2-0.2c-0.6-0.2-1.2-0.4-2-1c-1.6,0.9-3.5,1.2-5.4,1.2h-16.1c-0.7,2.9-2.5,5-4.9,6.4
					c-2.4,1.4-5.3,2.1-8.5,2.1c-3.7,0-7-1.2-9.4-3.5c-2.4-2.3-3.8-5.5-3.8-9.4c0-2.8,0.7-5.2,1.9-7.8l4.6,1.6
					c-0.6,1.3-1.1,2.7-1.4,4.3c-0.2,1.5-0.2,3.1,0.4,4.5c0.5,1.4,1.4,2.4,2.6,3.1s2.6,1,4,1.1c1.4,0.1,2.9,0,4.3-0.3
					c1.2-0.3,2.3-1,3.2-1.9s1.4-2,1.4-3.4V285l5.6-1.9L743.6,291L743.6,291z M754.2,288.5c-1,0-1.9,0.4-2.7,1s-1.6,1.4-2.2,2.1
					c-0.7,0.9-1.4,1.9-2,3h11.1c1.2,0,2.4,0,3.3-0.3c0.9-0.3,1.4-1.1,1.4-2.6c0-0.2,0-0.6,0-1.1c0-0.6-0.1-1.2-0.2-2h-8.7
					L754.2,288.5L754.2,288.5z"/>
				<path class="st0" d="M782.8,291c0.7-1.4,1.5-2.7,2.4-3.8c0.7-1,1.6-1.9,2.7-2.6c1-0.7,2.1-1.2,3.3-1.2h15.2
					c0.4,1.2,0.7,2.7,0.8,4.2c0.2,1.5,0.2,3.1,0.2,4.5c0,0.2,0,0.4,0,0.7c0,0.6,0,1.2,0.3,1.6c0.2,0.2,0.4,0.3,0.7,0.3h3.3v5.6h-3.4
					c-0.9,0-1.6,0-2.2-0.2c-0.6-0.2-1.2-0.4-1.9-1c-1.6,1-3.5,1.2-5.4,1.2h-26.2v-5.6h4.7v-9.5l5.6-1.9v7.7L782.8,291L782.8,291z
					 M793.4,288.5c-1,0-1.9,0.4-2.7,1c-0.8,0.6-1.6,1.4-2.2,2.1c-0.7,0.9-1.4,1.9-2,3h11.1c1.2,0,2.4,0,3.3-0.3
					c0.9-0.3,1.4-1.1,1.4-2.6c0-0.2,0-0.6,0-1.1c0-0.6-0.1-1.2-0.2-2h-8.7V288.5L793.4,288.5z"/>
				<path class="st0" d="M830.8,284.6c2.1,0.8,4.2,2,5.5,4c0.5,0.9,0.8,1.9,0.8,2.9s-0.2,2.1-0.5,3.1h4.9v5.6h-29.8v-5.6h19.8
					c0.3-0.6,0.4-1.1,0.4-1.7s-0.1-1-0.4-1.4c-0.5-0.7-1.6-1.4-3.3-2l-11.8-4.5l4.1-4.4L830.8,284.6z M828.2,273.6
					c0,0.8-0.3,1.5-0.8,2c-0.6,0.5-1.2,0.8-1.9,0.8c-0.8,0-1.4-0.2-2-0.8c-0.6-0.5-0.8-1.1-0.8-2c0-1.7,1.3-2.8,2.8-2.8
					C826.9,270.9,828.2,272,828.2,273.6z"/>
				<path class="st0" d="M851.3,292.6c0,0.4,0,0.8,0.1,1.2c0.1,0.4,0.4,0.7,0.9,0.7h3.4v5.6h-2.3c-1.7,0-3.5-0.2-4.9-1
					c-1.4,0.8-3.2,1-4.9,1h-2.5v-5.6h3.6c0.4,0,0.7-0.2,0.9-0.5s0.2-0.7,0.2-1v-7.9l5.5-1.9L851.3,292.6L851.3,292.6z M848.3,277.6
					c0,0.8-0.3,1.5-0.8,2c-0.6,0.5-1.2,0.8-1.9,0.8c-0.8,0-1.4-0.2-2-0.8c-0.6-0.5-0.8-1.1-0.8-2c0-1.7,1.3-2.8,2.8-2.8
					C847,274.9,848.3,276,848.3,277.6z M854.4,277.6c0,0.8-0.3,1.5-0.8,2c-0.6,0.5-1.2,0.8-1.9,0.8c-0.8,0-1.4-0.2-2-0.8
					c-0.6-0.5-0.8-1.1-0.8-2c0-1.7,1.3-2.8,2.8-2.8C853.1,274.9,854.4,276,854.4,277.6z"/>
				<path class="st0" d="M876.3,283.3c0.4,1.4,0.8,3.2,1,5.1s0.3,3.9-0.1,5.7c-0.4,1.8-1.1,3.3-2.3,4.4c-0.9,0.7-2,1.2-3.1,1.4
					c-1.1,0.3-2.3,0.3-3.4,0.3h-12.9v-5.6h4.7v-11.3H876.3z M865.8,294.6h2c1.3,0,2.6-0.1,3.5-0.6s1.4-1.3,1.4-2.8
					c0-0.9-0.1-1.8-0.2-2.4h-6.7V294.6z"/>
				<path class="st0" d="M918.3,295.1c0,4.1-1.2,7.5-3.5,9.9s-5.6,3.7-9.7,3.7c-3.7,0-7-1.2-9.4-3.5s-3.8-5.5-3.8-9.4
					c0-2.8,0.7-5.2,1.9-7.8l4.6,1.6c-1.1,2.2-1.7,4.8-1.4,7.1c0.3,2.3,1.6,4.3,4.3,5.5c2.2,0.7,4.7,0.7,7,0.2c1.2-0.3,2.3-1,3.2-1.9
					s1.4-2,1.4-3.4v-12l5.4-1.9V295.1z M907.7,282c0,0.8-0.3,1.5-0.8,2c-0.6,0.5-1.2,0.8-1.9,0.8c-0.8,0-1.4-0.2-2-0.8
					c-0.6-0.5-0.8-1.1-0.8-2c0-1.7,1.3-2.8,2.8-2.8C906.4,279.1,907.7,280.3,907.7,282z"/>
				<path class="st0" d="M927.9,292.6c0,0.4,0,0.8,0.1,1.2c0.1,0.4,0.4,0.7,0.9,0.7h3.4v5.6h-3.4c-1.9,0-3.6-0.6-4.7-1.8
					c-1.2-1.1-1.8-2.7-1.8-4.7v-24l5.6-1.4L927.9,292.6L927.9,292.6z"/>
				<path class="st0" d="M943.8,279.5c-0.3,0.2-0.7,0.4-1,0.8c-0.3,0.3-0.4,0.7-0.1,1.2c2,0.9,3.6,1.6,5.2,2.1
					c0.8,0.3,1.5,0.6,2.3,0.8c1.5,0.5,3.1,1,4.5,1.8s2.4,1.9,3.1,3.3c0.3,0.7,0.5,1.5,0.6,2.4c0,0.9-0.1,1.8-0.3,2.7h4.7v5.6h-30.7
					v-5.6h20.7c0.6-1.3,0.4-2.3-0.2-3c-0.6-0.7-1.7-1.2-2.9-1.7c-1.3-0.5-2.8-1.1-4.4-1.7c-1.5-0.6-3-1.1-4.2-1.6s-2.2-1-2.6-1.2
					c-0.6-0.9-1.1-1.9-1.4-2.9c-0.3-1-0.5-2-0.2-3.1c0.4-1.8,1.7-3.1,3.1-3.9l11.4-7.1l1.4,5.7L943.8,279.5z"/>
				<path class="st0" d="M983.4,283.3c0.4,1.4,0.8,3.2,1,5.1s0.3,3.9-0.1,5.7c-0.4,1.8-1.1,3.3-2.3,4.4c-0.9,0.7-2,1.2-3.1,1.4
					c-1.1,0.3-2.3,0.3-3.4,0.3h-12.9v-5.6h4.7v-11.3H983.4z M972.9,294.6h2c1.3,0,2.6-0.1,3.5-0.6s1.4-1.3,1.4-2.8
					c0-0.9-0.1-1.8-0.2-2.4h-6.7V294.6z"/>
				<path class="st0" d="M1025.4,295.1c0,1.5,0,3.1-0.4,4.6c-0.7,3-2.3,5.3-4.5,6.7c-2.2,1.5-5.1,2.2-8.3,2.2
					c-1.7,0-3.5-0.2-5.1-0.8c-1.6-0.6-3.2-1.5-4.6-2.8c-1.2-1.2-2.1-2.6-2.6-4.2c-0.6-1.6-0.8-3.3-0.8-5c0-2.8,0.7-5.2,1.9-7.8
					l4.6,1.6c-0.6,1.3-1.1,2.7-1.4,4.3c-0.2,1.5-0.2,3.1,0.4,4.5c0.6,1.8,2.1,3.1,3.9,3.8c2.2,0.7,4.7,0.7,7,0.2
					c1.9-0.5,3.4-1.6,4.3-3.5c0.2-0.4,0.3-1.1,0.3-1.8v-27l5.4-1.9v26.9L1025.4,295.1L1025.4,295.1z"/>
				<path class="st0" d="M1047.2,299.6c0,1.2-0.2,2.4-0.4,3.5c-0.6,2.2-2,3.8-4.2,4.7c-1.2,0.5-2.7,0.7-4.2,0.7s-3.1-0.2-4.4-0.6
					c-1.2-0.4-2.1-0.9-2.9-1.4l1.9-4.3c0.7,0.4,1.4,0.8,2.2,1.1c0.8,0.3,1.8,0.5,2.9,0.5c1,0,2-0.3,2.6-1c0.5-0.6,0.8-1.4,0.9-2.5
					h-2.6c-1.1,0-2.2-0.1-3.4-0.3c-1.1-0.3-2.2-0.7-3.1-1.4c-1.3-1-2-2.6-2.3-4.4c-0.4-1.8-0.3-3.7-0.1-5.7c0.2-1.9,0.6-3.7,1-5.1
					h16.1V299.6z M1034.9,288.9c-0.1,0.7-0.2,1.6-0.2,2.4c0,1.5,0.6,2.3,1.5,2.8s2.1,0.6,3.5,0.6h2v-5.8H1034.9z"/>
				<path class="st0" d="M1056.8,264.9c-1.1,0-1.8,0-2.2,0.1c-0.5,0-0.7,0.1-0.8,0.2c-0.3,0.2-0.4,0.5-0.4,0.8s0,0.6,0,0.9v0.4h4.8
					v2.4h-7.8v-2.4h0.9c0-0.4,0-0.7,0-1.1c0-1.1,0.2-2.2,1-2.8c0.4-0.3,0.8-0.5,1.4-0.6s1.3-0.1,2.3-0.1L1056.8,264.9z
					 M1057.2,297.9c0,0.4,0,0.9,0.1,1.3s0.2,0.9,0.4,1.1l-4.4,3.3c-1.2-1.2-1.7-3.1-1.7-4.7v-25.2l5.6-1.9L1057.2,297.9
					L1057.2,297.9z"/>
			</g>
		</g>
	</g>
</g>
</svg>
