<?xml version="1.0" encoding="utf-8"?>
<!-- Generator: Adobe Illustrator 24.2.3, SVG Export Plug-In . SVG Version: 6.00 Build 0)  -->
<svg version="1.1" id="Layer_1" xmlns="http://www.w3.org/2000/svg" xmlns:xlink="http://www.w3.org/1999/xlink" x="0px" y="0px"
	 viewBox="0 0 1121.2 415.7" style="enable-background:new 0 0 1121.2 415.7;" xml:space="preserve">
<style type="text/css">
	.st0{fill:#EA2C4D;}
	.st1{fill:#231F20;}
</style>
<g>
	<path class="st0" d="M928.9,401.8L811.3,283.4l-0.5,0.4c0.8,1.2,1.5,2.4,2.3,3.5c14.5,19.6,29,39.2,43.6,58.7
		c0.8,0.9,2,1.6,3.2,1.8c2.6,0.5,4.6,2.8,4.4,5.2c-0.3,2.5-2.5,4.3-5,4.2c-2.3,0-4.2-2-4.2-4.3c0-0.3,0-0.6,0.1-0.9
		c0.2-1.8-0.3-3.5-1.5-4.9c-10.3-13.8-20.5-27.7-30.7-41.5c-7.7-10.4-15.4-20.8-23.1-31.2c-0.5-0.6-1.1-1.2-1.7-1.9l-2.8,1.5
		c-1.7-2.3-3.5-4.5-5.1-6.8c-0.2-0.3-0.3-1.3,0-1.4c1.6-1.2,0.8-2.3,0-3.4c-7.9-10.6-15.7-21.2-23.7-31.8c-0.9-1-2.1-1.7-3.4-2.1
		c-2.3-0.7-3.7-3.1-3.3-5.4c0.4-2.3,2.6-3.9,4.9-3.6c2.5,0.1,4.6,1.9,4,4.3c-1,4,1.3,6.2,3.3,8.9c3,3.9,5.8,7.9,8.7,11.9
		c0.5,0.7,1.2,1.3,2,1.7c-4.7-12.6-7.7-25.3-7.4-38.8c0.3-13.5,3.6-26.1,9.2-38.3l-0.6-0.3c-1.5,2-2.9,4-4.3,6.1
		c-5.2,7.6-10.5,15.1-15.6,22.8c-0.5,1-0.7,2.2-0.5,3.4c0.2,2.3,0.1,4.6-2.1,5.6c-1.6,0.7-3.3,0.8-5,0.4c-2.3-0.8-3.4-2.8-2.9-5.4
		c0.5-2.3,1.9-3.6,4.3-4.1c1.3-0.3,2.5-1,3.4-2c8.4-12.1,16.8-24.2,25-36.4c0.5-0.8-0.3-2.6-0.5-3.9l-1-0.1l5.4-7.9l3.1,1.7
		c2.1-2.8,4.3-5.6,6.4-8.4c8.8-11.8,17.5-23.7,26.3-35.5c1.2-1.4,1.7-3.3,1.3-5.1c-0.4-2.3,1-4.6,3.2-5.3c2.6-0.8,5.1,0.2,6.2,2.4
		c1.2,2.2,0.6,5-1.5,6.4c-0.4,0.3-0.8,0.7-1.2,0.6c-3.5-0.5-4.7,2.2-6.4,4.4c-8.7,11.7-17.4,23.3-26,35c-0.1,0.1-0.1,0.3,0.2,0.8
		l127.5-129L982.6,68c-0.6,0.7-1.1,1.3-1.7,1.9c-35.3,35.7-70.5,71.4-105.8,107.1c-4.7,4.5-9.1,9.3-13.2,14.4
		c-8.7,10.9-8.6,22.3,0.1,33.2c4.7,5.8,10,11.2,15.3,16.5c15.8,16.2,31.7,32.3,47.6,48.3c0.4,0.4,0.9,0.8,1.6,1.3
		c5.6-5.4,11.2-10.6,16.7-16c19.7-19.5,39.4-39,59-58.6c6.1-6.1,6.2-9.8,0.8-16.5c-2.5-3.1-5.6-5.7-8.1-8.2l-67.8,67
		c-1.1-1-1.8-1.6-2.5-2.3l-34.8-35.7c-4.6-4.7-6.9-10.1-4.2-16.5c1-2.4,2.9-4.5,4.8-6.3c27.1-27.2,54.2-54.3,81.3-81.4
		c9-9,18-17.9,27-27c1.6-1.7,2.5-1.5,4,0.1c15,15.7,30.1,31.3,45.2,47c1.5,1.5,2.8,3.1,4.2,4.6l0.5-0.4c-4.4-6-8.8-12-13.2-17.9
		c-3.8-5.2-7.6-10.4-11.6-15.4c-1-1.3-2.3-2.2-3.9-2.6c-2.8-0.6-4.8-2.5-4.6-5.3c0.2-3,2.4-4.8,5.7-4.6c2.7,0.2,4.9,2.4,4.3,5.1
		s0.5,4.4,1.9,6.3c10.3,13.8,20.6,27.6,30.8,41.5c0.4,0.6,0.8,1.2,1.1,1.7l3.2-2c1.6,2.4,3.3,4.8,4.8,7.2c0.2,0.6,0,1.3-0.5,1.8
		c-1.7,1.1-1.2,2.2-0.3,3.5c8.1,11.7,16.2,23.5,24.3,35.3c1,1.5,2,2.7,4.2,2.8c2.8,0.2,4.4,2.7,4.1,5.8c-0.2,2.3-2.8,4.3-5.4,4.2
		c-2.5-0.1-5.1-2.4-4.5-4.9c1-3.6-1-5.7-2.7-8.1c-3.7-5.3-7.4-10.7-11.1-16.1c-0.5-0.8-1.2-1.4-2-2c8.2,23.2,7,46-2.5,68.7
		c0.5-0.5,1-1,1.4-1.5c3.5-4.7,6.9-9.5,10.5-14.2c1-1.1,1.4-2.6,0.9-4c-0.7-2.2-0.2-4.4,2.2-5.5c1.9-1,4.2-0.6,5.6,1
		c1.7,2,1.4,5-0.6,6.6c-0.5,0.4-1.1,0.7-1.7,0.9c-1.4,0.4-2.6,1.2-3.6,2.3c-7.9,10.5-15.7,21-23.5,31.6c-0.7,0.9-1.7,2-0.2,3.2
		c0.3,0.3,0.3,1.4,0,1.8c-1.5,2.2-3.1,4.3-4.9,6.6c-2.8-2.6-4-0.4-5.4,1.7c-10.1,13.8-20.3,27.6-30.5,41.4
		c-7.6,10.3-15.3,20.6-22.9,31c-0.7,1.1-0.9,2.4-0.8,3.7c0.1,3.2-1.3,5.2-4.2,5.4c-2.5,0.1-4.7-1.7-5-4.2c-0.2-2.6,1.8-4.7,4.6-5.2
		c1.1-0.2,2.1-0.8,2.8-1.6c15.7-21.1,31.4-42.3,47-63.5c1-1.2,1.7-2.6,2.2-4.1L928.9,401.8z"/>
	<g>
		<g>
			<g>
				<path class="st1" d="M117.8,202.8c0,12.8-3.7,23.4-10.8,30.7c-7.1,7.3-17.4,11.5-30.2,11.5c-11.6,0-21.8-3.9-29.1-10.8
					c-7.3-6.9-11.8-17-11.8-29.3c0-8.6,2.1-16.1,6-24.2l14.2,5.1c-3.4,6.9-5.3,14.9-4.4,22c1,7.1,4.9,13.4,13.2,17.1
					c6.7,2.2,14.5,2.2,21.7,0.6c3.6-1,7.2-3,9.9-5.8c2.7-2.8,4.4-6.4,4.4-10.5v-37.4l16.8-6V202.8z M84.8,161.5
					c0,2.6-0.9,4.7-2.6,6.2c-1.7,1.6-3.7,2.4-6,2.4c-2.4,0-4.4-0.8-6.1-2.4c-1.7-1.5-2.6-3.5-2.6-6.2c0-5.3,4-8.6,8.7-8.6
					S84.8,156.2,84.8,161.5z"/>
				<path class="st1" d="M185.6,216.8c0,3.9-0.5,7.4-1.3,10.8c-1.7,6.7-6.4,11.9-13,14.6c-3.7,1.5-8.3,2.2-13,2.3s-9.6-0.6-13.6-1.9
					c-3.7-1.2-6.7-2.7-9-4.3l5.8-13.4c2.1,1.3,4.4,2.4,6.9,3.4c2.4,0.9,5.8,1.6,8.9,1.5c3.2-0.1,6.2-1,8.2-3.3
					c1.6-1.7,2.6-4.4,2.8-7.9H160c-3.4,0-7-0.2-10.5-1c-3.5-0.8-6.9-2.2-9.7-4.5c-4-3.3-6.2-8-7.2-13.6c-1.1-5.5-0.9-11.6-0.2-17.6
					c0.7-6,1.9-11.6,3.1-16h50.1V216.8z M147.4,183.1c-0.3,2.1-0.7,4.9-0.7,7.6c0,4.7,1.7,7.3,4.6,8.7c2.8,1.5,6.7,1.7,10.8,1.7h6.2
					v-18.1H147.4z"/>
				<path class="st1" d="M215.4,195.1c0,1.2,0,2.6,0.4,3.9c0.4,1.2,1.2,2.2,2.8,2.2h10.6v17.3h-10.7c-6,0-11.2-2-14.8-5.5
					s-5.8-8.5-5.8-14.6v-74.8l17.3-4.5V195.1z"/>
				<path class="st1" d="M267.2,198.2c0,5-1.5,10.7-5.3,14.6c-2.3,2.3-5.3,3.7-8.6,4.5c-3.3,0.8-6.7,1-10.1,1l-14.6,0.2v-17.3
					l18-0.2c1.7,0,2.5-1,2.9-2.2c0.4-1.2,0.4-2.7,0.4-3.9v-23.4l17.3-6V198.2z M249.8,147.8c0,2.6-0.9,4.7-2.6,6.2
					c-1.7,1.6-3.7,2.4-6,2.4c-2.4,0-4.4-0.8-6.1-2.4c-1.7-1.5-2.6-3.5-2.6-6.2c0-5.3,4-8.6,8.7-8.6S249.8,142.5,249.8,147.8z
					 M268.7,147.8c0,2.6-0.9,4.7-2.6,6.2c-1.7,1.6-3.7,2.4-6,2.4c-2.4,0-4.4-0.8-6.1-2.4c-1.7-1.5-2.6-3.5-2.6-6.2
					c0-5.3,4-8.6,8.7-8.6S268.7,142.5,268.7,147.8z"/>
				<path class="st1" d="M403,197.2c0.2,2,0.8,4,3.3,4h10.6v17.3h-10.6c-2.6,0-4.5-0.2-6.2-0.6s-3.5-1.1-5.7-2.4
					c-4.4,2.5-10.1,3-15.3,3h-38.1c-3.3,0-6.7-0.2-10-1c-3.3-0.8-6.5-2.3-9.3-4.6c-3-2.6-5.1-6.1-6.2-9.9c-1.2-3.8-1.7-8-1.7-12.1
					c0-7.5,1.5-15.1,6-21.8l13.3,5.7c-2.6,4.5-4.8,9.2-4.8,14.8c0,4.4,1.2,7.3,3.5,9.1c2.2,1.8,5.5,2.5,9.9,2.5h40.7
					c2.4,0,3.1-1.9,3.3-3.8V125l17.3-5.9V197.2z M370.2,166.5c-4.4,0-7,0.1-8.7,0.3c-1.7,0.2-2.6,0.6-3.2,0.9
					c-1,0.6-1.5,1.8-1.7,2.9c-0.2,1.2-0.1,2.4,0,3.5l0.2,1.5h18.7v9.5h-30.3v-9.4h3.7c-0.1-1.5-0.1-2.8-0.1-4.2
					c0-4.2,0.8-8.5,4.1-11.1c1.5-1.2,3.3-2,5.6-2.4c2.4-0.4,5.2-0.5,9-0.5L370.2,166.5z"/>
				<path class="st1" d="M448,195.1c0,1.2,0,2.6,0.4,3.9c0.4,1.2,1.2,2.2,2.9,2.2h10.5v17.3h-7.1c-5.3,0-10.9-0.6-15.4-3
					c-4.4,2.5-10.1,3-15.3,3h-7.8v-17.3h11.2c1.4,0,2.2-0.7,2.7-1.7c0.5-1,0.6-2.1,0.6-3.3v-24.5l17.3-6V195.1z M438.4,242.2
					c0,2.6-0.9,4.7-2.6,6.2c-1.7,1.6-3.7,2.4-6,2.4c-2.4,0-4.4-0.8-6.1-2.4c-1.7-1.5-2.6-3.5-2.6-6.2c0-5.3,4-8.6,8.7-8.6
					S438.4,236.8,438.4,242.2z M457.3,242.2c0,2.6-0.9,4.7-2.6,6.2c-1.7,1.6-3.7,2.4-6,2.4c-2.4,0-4.4-0.8-6.1-2.4
					c-1.7-1.5-2.6-3.5-2.6-6.2c0-5.3,4-8.6,8.7-8.6S457.3,236.8,457.3,242.2z"/>
				<path class="st1" d="M529.5,179.8c0,3.8,0,7,0,9.5v5.9c0,1.4,0,2.4,0,3v1.3c-0.1,0.2-0.1,0.3-0.1,0.4c-0.2,4.8-1.2,9.8-4.6,13.4
					c-3.3,3.3-8.2,5-13.2,5.2h-50.5v-17.3h15.7c-1.4-5.6-1.4-12.1-0.8-18.4c0.6-6.2,2-12.3,3.3-17h50.1V179.8z M491.4,183.1
					c-0.3,2.1-0.7,4.9-0.7,7.6c0,4.4,1.6,7.1,4.2,8.5c2.5,1.5,6.1,1.9,10,1.9h4.4c1.5-0.1,2.4-1.1,2.7-2.4c0.3-1.3,0.4-2.9,0.4-4.4
					v-11.3H491.4z M512.3,147.9c0,2.6-0.9,4.7-2.6,6.2c-1.7,1.6-3.7,2.4-6,2.4c-2.4,0-4.4-0.8-6.1-2.4c-1.7-1.5-2.6-3.5-2.6-6.2
					c0-5.3,4-8.6,8.7-8.6S512.3,142.6,512.3,147.9z"/>
				<path class="st1" d="M559.4,211.2c0,1.2,0.1,2.7,0.3,4.1c0.2,1.4,0.6,2.7,1.4,3.5l-13.7,10.3c-3.9-3.9-5.3-9.6-5.3-14.6v-89.6
					l17.3-5.8V211.2z"/>
				<path class="st1" d="M621.5,201.2v17.3h-13.9c-0.1,3.3-0.5,6.2-1.2,9.2c-1.9,7-6.7,12-13,14.6c-3.9,1.6-8.7,2.3-13.4,2.3
					c-4.7,0-9.4-0.6-13.2-1.9c-3.7-1.2-6.7-2.7-9-4.3l5.8-13.4c2.1,1.3,4.4,2.4,6.9,3.4c2.6,1,5.9,1.6,9,1.5c3.1-0.1,6.2-1,8.1-3.3
					c1.9-2,2.8-5.5,2.8-10.4v-44.4l17.3-5.9v35.4H621.5z"/>
				<path class="st1" d="M680.4,170c6.6,2.5,13.1,6.1,17,12.5c1.9,3.4,2.6,7.3,2.4,11.2s-1.3,7.9-2.7,11.5
					c-1.7,4.7-3.8,9.3-6.1,13.4h-70.2v-17.3h61.6c0.9-1.8,1.4-3.5,1.4-5.2s-0.4-3-1.3-4.2c-1.6-2.1-5.1-4.3-10.3-6.3l-36.8-14.1
					l12.6-13.7L680.4,170z M672.2,241.9c0,2.6-0.9,4.7-2.6,6.2c-1.7,1.6-3.7,2.4-6,2.4c-2.4,0-4.4-0.8-6.1-2.4
					c-1.7-1.5-2.6-3.5-2.6-6.2c0-5.3,4-8.6,8.7-8.6C668.3,233.3,672.2,236.5,672.2,241.9z"/>
			</g>
			<g>
				<path class="st1" d="M37.2,293.4c0,0.4,0,0.8,0.1,1.2c0.1,0.4,0.4,0.7,0.9,0.7h3.4v5.6h-3.4c-1.9,0-3.6-0.6-4.7-1.8
					s-1.8-2.7-1.8-4.7v-24l5.6-1.4V293.4z"/>
				<path class="st1" d="M51.6,291.7c0.7-1.4,1.5-2.7,2.4-3.8c0.7-1,1.6-1.9,2.7-2.6c1-0.7,2.1-1.2,3.3-1.2h15.2v0l0,0
					c0.4,1.2,0.6,2.7,0.8,4.3c0.2,1.6,0.2,3.4,0.3,5.1c0,0.4,0,0.8,0.1,1.2c0.1,0.4,0.4,0.7,0.9,0.7h3.4v5.6h-3.4
					c-0.9,0-1.6,0-2.2-0.2s-1.2-0.5-2-1c-0.1,0.1-0.2,0.1-0.3,0.2c-1.5,0.8-3.3,1-5.2,1H41.4v-5.6h4.7v-24.5l5.6-1.9V291.7z
					 M62.2,289.3c-1,0-1.9,0.4-2.7,1c-0.8,0.6-1.6,1.4-2.2,2.1c-0.7,0.9-1.4,1.9-2,3h11.1c1.2,0,2.4,0,3.3-0.3
					c0.9-0.3,1.4-1.1,1.4-2.6c0-0.2,0-0.6,0-1.1c0-0.6-0.1-1.2-0.2-2H62.2z"/>
				<path class="st1" d="M90.8,293.4c0,0.4,0,0.8,0.1,1.2c0.1,0.4,0.4,0.7,0.9,0.7h3.4v5.6H93c-1.7,0-3.5-0.2-4.9-1
					c-1.4,0.8-3.2,1-4.9,1h-2.5v-5.6h3.6c0.4,0,0.7-0.2,0.9-0.5c0.2-0.3,0.2-0.7,0.2-1v-7.9l5.5-1.9V293.4z M90.1,277.8
					c0,0.8-0.3,1.5-0.8,2c-0.6,0.5-1.2,0.8-1.9,0.8c-0.8,0-1.4-0.2-2-0.8c-0.6-0.5-0.8-1.1-0.8-2c0-1.7,1.3-2.8,2.8-2.8
					C88.8,275.1,90.1,276.1,90.1,277.8z"/>
				<path class="st1" d="M105.3,291.7c0.7-1.4,1.5-2.7,2.4-3.8c0.7-1,1.6-1.9,2.7-2.6c1-0.7,2.1-1.2,3.3-1.2h15.2v0l0,0
					c0.4,1.2,0.6,2.7,0.8,4.3c0.2,1.6,0.2,3.4,0.3,5.1c0,0.4,0,0.8,0.1,1.2c0.1,0.4,0.4,0.7,0.9,0.7h3.4v5.6h-3.4
					c-0.9,0-1.6,0-2.2-0.2s-1.2-0.5-2-1c-0.1,0.1-0.2,0.1-0.3,0.2c-1.5,0.8-3.3,1-5.2,1H95.1v-5.6h4.7v-24.5l5.6-1.9V291.7z
					 M115.9,289.3c-1,0-1.9,0.4-2.7,1c-0.8,0.6-1.6,1.4-2.2,2.1c-0.7,0.9-1.4,1.9-2,3H120c1.2,0,2.4,0,3.3-0.3
					c0.9-0.3,1.4-1.1,1.4-2.6c0-0.2,0-0.6,0-1.1c0-0.6-0.1-1.2-0.2-2H115.9z"/>
				<path class="st1" d="M144.5,294.5c0,1.6-0.5,3.4-1.7,4.7c-0.7,0.7-1.7,1.2-2.8,1.4s-2.2,0.3-3.2,0.3h-2.5v-5.6h3.6
					c0.5,0,0.8-0.3,0.9-0.7c0.1-0.4,0.1-0.9,0.1-1.2v-7.5l5.5-1.9V294.5z M143.1,308.5c0,0.8-0.3,1.5-0.8,2
					c-0.6,0.5-1.2,0.8-1.9,0.8c-0.8,0-1.4-0.2-2-0.8c-0.6-0.5-0.8-1.1-0.8-2c0-1.7,1.3-2.8,2.8-2.8
					C141.9,305.7,143.1,306.8,143.1,308.5z"/>
				<path class="st1" d="M187.7,294.1c0.1,0.6,0.3,1.3,1,1.3h3.4v5.6h-3.4c-0.8,0-1.4-0.1-2-0.2c-0.6-0.1-1.1-0.4-1.8-0.8
					c-1.4,0.8-3.3,1-4.9,1h-12.2c-1,0-2.1-0.1-3.2-0.3c-1.1-0.3-2.1-0.7-3-1.5c-1-0.8-1.6-2-2-3.2c-0.4-1.2-0.5-2.6-0.5-3.9
					c0-2.4,0.5-4.9,1.9-7l4.3,1.8c-0.8,1.4-1.5,3-1.5,4.7c0,1.4,0.4,2.3,1.1,2.9c0.7,0.6,1.8,0.8,3.2,0.8H181c0.8,0,1-0.6,1.1-1.2
					v-23.2l5.5-1.9V294.1z M177.1,284.2c-1.4,0-2.2,0-2.8,0.1c-0.6,0.1-0.8,0.2-1,0.3c-0.3,0.2-0.5,0.6-0.6,0.9
					c-0.1,0.4,0,0.8,0,1.1l0.1,0.5h6v3h-9.7v-3h1.2c0-0.5,0-0.9,0-1.4c0-1.3,0.3-2.7,1.3-3.6c0.5-0.4,1-0.6,1.8-0.8s1.7-0.2,2.9-0.2
					L177.1,284.2z"/>
				<path class="st1" d="M202.1,293.4c0,0.4,0,0.8,0.1,1.2c0.1,0.4,0.4,0.7,0.9,0.7h3.4v5.6h-2.3c-1.7,0-3.5-0.2-4.9-1
					c-1.4,0.8-3.2,1-4.9,1h-2.5v-5.6h3.6c0.4,0,0.7-0.2,0.9-0.5c0.2-0.3,0.2-0.7,0.2-1v-7.9l5.5-1.9V293.4z M199,308.6
					c0,0.8-0.3,1.5-0.8,2c-0.6,0.5-1.2,0.8-1.9,0.8c-0.8,0-1.4-0.2-2-0.8c-0.6-0.5-0.8-1.1-0.8-2c0-1.7,1.3-2.8,2.8-2.8
					C197.7,305.8,199,306.8,199,308.6z M205.1,308.6c0,0.8-0.3,1.5-0.8,2c-0.6,0.5-1.2,0.8-1.9,0.8c-0.8,0-1.4-0.2-2-0.8
					c-0.6-0.5-0.8-1.1-0.8-2c0-1.7,1.3-2.8,2.8-2.8S205.1,306.8,205.1,308.6z"/>
				<path class="st1" d="M228.3,288.5c0,1.2,0,2.2,0,3v1.9c0,0.4,0,0.8,0,1v0.4c0,0.1,0,0.1,0,0.1c-0.1,1.5-0.4,3.1-1.5,4.3
					c-1,1-2.6,1.6-4.2,1.7h-16.2v-5.6h5c-0.4-1.8-0.4-3.9-0.2-5.9c0.2-2,0.6-3.9,1.1-5.5h16.1V288.5z M216,289.6
					c-0.1,0.7-0.2,1.6-0.2,2.4c0,1.4,0.5,2.3,1.3,2.7c0.8,0.5,2,0.6,3.2,0.6h1.4c0.5,0,0.8-0.4,0.9-0.8s0.1-0.9,0.1-1.4v-3.6H216z
					 M222.8,278.3c0,0.8-0.3,1.5-0.8,2c-0.6,0.5-1.2,0.8-1.9,0.8c-0.8,0-1.4-0.2-2-0.8c-0.6-0.5-0.8-1.1-0.8-2
					c0-1.7,1.3-2.8,2.8-2.8C221.5,275.5,222.8,276.6,222.8,278.3z"/>
				<path class="st1" d="M237.9,298.6c0,0.4,0,0.9,0.1,1.3c0.1,0.4,0.2,0.9,0.4,1.1l-4.4,3.3c-1.2-1.2-1.7-3.1-1.7-4.7v-28.8
					l5.6-1.9V298.6z"/>
				<path class="st1" d="M257.8,295.4v5.6h-4.5c0,1-0.2,2-0.4,2.9c-0.6,2.2-2.1,3.9-4.2,4.7c-1.2,0.5-2.8,0.7-4.3,0.7
					c-1.5,0-3-0.2-4.3-0.6c-1.2-0.4-2.1-0.9-2.9-1.4l1.9-4.3c0.7,0.4,1.4,0.8,2.2,1.1c0.8,0.3,1.9,0.5,2.9,0.5c1,0,2-0.3,2.6-1
					c0.6-0.6,0.9-1.8,0.9-3.3v-14.2l5.6-1.9v11.4H257.8z"/>
				<path class="st1" d="M276.7,285.4c2.1,0.8,4.2,2,5.5,4c0.6,1.1,0.8,2.3,0.8,3.6c-0.1,1.2-0.4,2.5-0.9,3.7c-0.6,1.5-1.2,3-2,4.3
					h-22.5v-5.6h19.8c0.3-0.6,0.4-1.1,0.4-1.7s-0.1-1-0.4-1.4c-0.5-0.7-1.6-1.4-3.3-2l-11.8-4.5l4.1-4.4L276.7,285.4z M274.1,308.5
					c0,0.8-0.3,1.5-0.8,2c-0.6,0.5-1.2,0.8-1.9,0.8c-0.8,0-1.4-0.2-2-0.8c-0.6-0.5-0.8-1.1-0.8-2c0-1.7,1.3-2.8,2.8-2.8
					C272.9,305.7,274.1,306.8,274.1,308.5z"/>
				<path class="st1" d="M303.6,292.4c-0.6,1.3-1.1,2.7-1.4,4.3c-0.2,1.5-0.2,3.1,0.4,4.5c0.7,1.8,2.3,3.3,4.1,4
					c1.8,0.7,4,0.9,5.9,0.2c2-0.6,3.7-2,4.8-4.4h-5.6l2.1-5.6h13.4v5.6H323c-0.7,2.9-2.3,5.5-4.5,7.4c-2.2,1.9-5,3-8.3,3
					c-1.7,0-3.5-0.2-5.1-0.8c-1.6-0.6-3.2-1.5-4.6-2.8c-2.2-2.2-3.3-5.1-3.4-8.1c-0.2-3,0.6-6.1,1.9-8.9L303.6,292.4z M309.8,316.4
					c0,0.8-0.3,1.5-0.8,2c-0.6,0.5-1.2,0.8-1.9,0.8c-0.8,0-1.4-0.2-2-0.8c-0.6-0.5-0.8-1.1-0.8-2c0-1.7,1.3-2.8,2.8-2.8
					C308.5,313.7,309.8,314.7,309.8,316.4z M315.8,316.4c0,0.8-0.3,1.5-0.8,2c-0.6,0.5-1.2,0.8-1.9,0.8c-0.8,0-1.4-0.2-2-0.8
					c-0.6-0.5-0.8-1.1-0.8-2c0-1.7,1.3-2.8,2.8-2.8S315.8,314.7,315.8,316.4z"/>
				<path class="st1" d="M349.1,288.5c0,1.2,0,2.2,0,3v1.9c0,0.4,0,0.8,0,1v0.4c0,0.1,0,0.1,0,0.1c-0.1,1.5-0.4,3.1-1.5,4.3
					c-1,1-2.6,1.6-4.2,1.7h-16.2v-5.6h5c-0.4-1.8-0.4-3.9-0.2-5.9c0.2-2,0.6-3.9,1.1-5.5h16.1V288.5z M336.8,289.6
					c-0.1,0.7-0.2,1.6-0.2,2.4c0,1.4,0.5,2.3,1.3,2.7c0.8,0.5,2,0.6,3.2,0.6h1.4c0.5,0,0.8-0.4,0.9-0.8s0.1-0.9,0.1-1.4v-3.6H336.8z
					 M343.6,278.3c0,0.8-0.3,1.5-0.8,2c-0.6,0.5-1.2,0.8-1.9,0.8c-0.8,0-1.4-0.2-2-0.8c-0.6-0.5-0.8-1.1-0.8-2
					c0-1.7,1.3-2.8,2.8-2.8C342.3,275.5,343.6,276.6,343.6,278.3z"/>
				<path class="st1" d="M390,291.7c0.7-1.4,1.5-2.7,2.4-3.8c0.7-1,1.6-1.9,2.7-2.6c1-0.7,2.1-1.2,3.3-1.2h15.2
					c0.4,1.2,0.7,2.7,0.8,4.2c0.2,1.5,0.2,3.1,0.2,4.5c0,0.2,0,0.4,0,0.7c0,0.6,0.1,1.2,0.4,1.6c0.2,0.2,0.4,0.3,0.7,0.3h3.4v5.6
					h-3.4c-0.9,0-1.6,0-2.2-0.2c-0.6-0.2-1.2-0.4-2-1c-1.6,0.9-3.5,1.2-5.4,1.2H390c-0.7,2.9-2.5,5-4.9,6.4
					c-2.4,1.4-5.3,2.1-8.5,2.1c-3.7,0-7-1.2-9.4-3.5s-3.8-5.5-3.8-9.4c0-2.8,0.7-5.2,1.9-7.8l4.6,1.6c-0.6,1.3-1.1,2.7-1.4,4.3
					c-0.2,1.5-0.2,3.1,0.4,4.5c0.5,1.4,1.4,2.4,2.6,3.1c1.2,0.7,2.6,1,4,1.1c1.4,0.1,2.9,0,4.3-0.3c1.2-0.3,2.3-1,3.2-1.9
					s1.4-2,1.4-3.4v-12.1l5.6-1.9V291.7z M400.6,289.3c-1,0-1.9,0.4-2.7,1c-0.8,0.6-1.6,1.4-2.2,2.1c-0.7,0.9-1.4,1.9-2,3h11.1
					c1.2,0,2.4,0,3.3-0.3c0.9-0.3,1.4-1.1,1.4-2.6c0-0.2,0-0.6,0-1.1c0-0.6-0.1-1.2-0.2-2H400.6z"/>
				<path class="st1" d="M429.2,291.7c0.7-1.4,1.5-2.7,2.4-3.8c0.7-1,1.6-1.9,2.7-2.6c1-0.7,2.1-1.2,3.3-1.2h15.2
					c0.4,1.2,0.7,2.7,0.8,4.2c0.2,1.5,0.2,3.1,0.2,4.5c0,0.2,0,0.4,0,0.7c0,0.6,0,1.2,0.3,1.6c0.2,0.2,0.4,0.3,0.7,0.3h3.3v5.6h-3.4
					c-0.9,0-1.6,0-2.2-0.2c-0.6-0.2-1.2-0.4-1.9-1c-1.6,1-3.5,1.2-5.4,1.2H419v-5.6h4.7v-9.5l5.6-1.9V291.7z M439.8,289.3
					c-1,0-1.9,0.4-2.7,1c-0.8,0.6-1.6,1.4-2.2,2.1c-0.7,0.9-1.4,1.9-2,3h11.1c1.2,0,2.4,0,3.3-0.3c0.9-0.3,1.4-1.1,1.4-2.6
					c0-0.2,0-0.6,0-1.1c0-0.6-0.1-1.2-0.2-2H439.8z"/>
				<path class="st1" d="M477.2,285.4c2.1,0.8,4.2,2,5.5,4c0.5,0.9,0.8,1.9,0.8,2.9c0,1-0.2,2.1-0.5,3.1h4.9v5.6h-29.8v-5.6h19.8
					c0.3-0.6,0.4-1.1,0.4-1.7s-0.1-1-0.4-1.4c-0.5-0.7-1.6-1.4-3.3-2l-11.8-4.5l4.1-4.4L477.2,285.4z M474.6,274.4
					c0,0.8-0.3,1.5-0.8,2c-0.6,0.5-1.2,0.8-1.9,0.8c-0.8,0-1.4-0.2-2-0.8c-0.6-0.5-0.8-1.1-0.8-2c0-1.7,1.3-2.8,2.8-2.8
					C473.3,271.6,474.6,272.7,474.6,274.4z"/>
				<path class="st1" d="M497.7,293.4c0,0.4,0,0.8,0.1,1.2c0.1,0.4,0.4,0.7,0.9,0.7h3.4v5.6h-2.3c-1.7,0-3.5-0.2-4.9-1
					c-1.4,0.8-3.2,1-4.9,1h-2.5v-5.6h3.6c0.4,0,0.7-0.2,0.9-0.5c0.2-0.3,0.2-0.7,0.2-1v-7.9l5.5-1.9V293.4z M494.7,278.4
					c0,0.8-0.3,1.5-0.8,2c-0.6,0.5-1.2,0.8-1.9,0.8c-0.8,0-1.4-0.2-2-0.8c-0.6-0.5-0.8-1.1-0.8-2c0-1.7,1.3-2.8,2.8-2.8
					C493.4,275.6,494.7,276.7,494.7,278.4z M500.8,278.4c0,0.8-0.3,1.5-0.8,2c-0.6,0.5-1.2,0.8-1.9,0.8c-0.8,0-1.4-0.2-2-0.8
					c-0.6-0.5-0.8-1.1-0.8-2c0-1.7,1.3-2.8,2.8-2.8C499.5,275.6,500.8,276.7,500.8,278.4z"/>
				<path class="st1" d="M522.7,284c0.4,1.4,0.8,3.2,1,5.1c0.2,1.9,0.3,3.9-0.1,5.7c-0.4,1.8-1.1,3.3-2.3,4.4
					c-0.9,0.7-2,1.2-3.1,1.4c-1.1,0.3-2.3,0.3-3.4,0.3h-12.9v-5.6h4.7V284H522.7z M512.2,295.4h2c1.3,0,2.6-0.1,3.5-0.6
					c0.9-0.5,1.4-1.3,1.4-2.8c0-0.9-0.1-1.8-0.2-2.4h-6.7V295.4z"/>
				<path class="st1" d="M564.7,295.9c0,4.1-1.2,7.5-3.5,9.9c-2.3,2.4-5.6,3.7-9.7,3.7c-3.7,0-7-1.2-9.4-3.5s-3.8-5.5-3.8-9.4
					c0-2.8,0.7-5.2,1.9-7.8l4.6,1.6c-1.1,2.2-1.7,4.8-1.4,7.1c0.3,2.3,1.6,4.3,4.3,5.5c2.2,0.7,4.7,0.7,7,0.2c1.2-0.3,2.3-1,3.2-1.9
					s1.4-2,1.4-3.4v-12l5.4-1.9V295.9z M554.1,282.7c0,0.8-0.3,1.5-0.8,2c-0.6,0.5-1.2,0.8-1.9,0.8c-0.8,0-1.4-0.2-2-0.8
					c-0.6-0.5-0.8-1.1-0.8-2c0-1.7,1.3-2.8,2.8-2.8C552.8,279.9,554.1,281,554.1,282.7z"/>
				<path class="st1" d="M574.3,293.4c0,0.4,0,0.8,0.1,1.2c0.1,0.4,0.4,0.7,0.9,0.7h3.4v5.6h-3.4c-1.9,0-3.6-0.6-4.7-1.8
					c-1.2-1.1-1.8-2.7-1.8-4.7v-24l5.6-1.4V293.4z"/>
				<path class="st1" d="M590.2,280.2c-0.3,0.2-0.7,0.4-1,0.8c-0.3,0.3-0.4,0.7-0.1,1.2c2,0.9,3.6,1.6,5.2,2.1
					c0.8,0.3,1.5,0.6,2.3,0.8c1.5,0.5,3.1,1,4.5,1.8c1.4,0.8,2.4,1.9,3.1,3.3c0.3,0.7,0.5,1.5,0.6,2.4c0,0.9-0.1,1.8-0.3,2.7h4.7
					v5.6h-30.7v-5.6h20.7c0.6-1.3,0.4-2.3-0.2-3c-0.6-0.7-1.7-1.2-2.9-1.7c-1.3-0.5-2.8-1.1-4.4-1.7c-1.5-0.6-3-1.1-4.2-1.6
					c-1.2-0.5-2.2-1-2.6-1.2c-0.6-0.9-1.1-1.9-1.4-2.9c-0.3-1-0.5-2-0.2-3.1c0.4-1.8,1.7-3.1,3.1-3.9l11.4-7.1l1.4,5.7L590.2,280.2z
					"/>
				<path class="st1" d="M629.8,284c0.4,1.4,0.8,3.2,1,5.1c0.2,1.9,0.3,3.9-0.1,5.7c-0.4,1.8-1.1,3.3-2.3,4.4
					c-0.9,0.7-2,1.2-3.1,1.4c-1.1,0.3-2.3,0.3-3.4,0.3H609v-5.6h4.7V284H629.8z M619.3,295.4h2c1.3,0,2.6-0.1,3.5-0.6
					c0.9-0.5,1.4-1.3,1.4-2.8c0-0.9-0.1-1.8-0.2-2.4h-6.7V295.4z"/>
				<path class="st1" d="M671.8,295.9c0,1.5,0,3.1-0.4,4.6c-0.7,3-2.3,5.3-4.5,6.7c-2.2,1.5-5.1,2.2-8.3,2.2c-1.7,0-3.5-0.2-5.1-0.8
					c-1.6-0.6-3.2-1.5-4.6-2.8c-1.2-1.2-2.1-2.6-2.6-4.2c-0.6-1.6-0.8-3.3-0.8-5c0-2.8,0.7-5.2,1.9-7.8l4.6,1.6
					c-0.6,1.3-1.1,2.7-1.4,4.3c-0.2,1.5-0.2,3.1,0.4,4.5c0.6,1.8,2.1,3.1,3.9,3.8c2.2,0.7,4.7,0.7,7,0.2c1.9-0.5,3.4-1.6,4.3-3.5
					c0.2-0.4,0.3-1.1,0.3-1.8v-27l5.4-1.9V295.9z"/>
				<path class="st1" d="M693.6,300.4c0,1.2-0.2,2.4-0.4,3.5c-0.6,2.2-2,3.8-4.2,4.7c-1.2,0.5-2.7,0.7-4.2,0.7s-3.1-0.2-4.4-0.6
					c-1.2-0.4-2.1-0.9-2.9-1.4l1.9-4.3c0.7,0.4,1.4,0.8,2.2,1.1c0.8,0.3,1.8,0.5,2.9,0.5c1,0,2-0.3,2.6-1c0.5-0.6,0.8-1.4,0.9-2.5
					h-2.6c-1.1,0-2.2-0.1-3.4-0.3c-1.1-0.3-2.2-0.7-3.1-1.4c-1.3-1-2-2.6-2.3-4.4c-0.4-1.8-0.3-3.7-0.1-5.7c0.2-1.9,0.6-3.7,1-5.1
					h16.1V300.4z M681.3,289.6c-0.1,0.7-0.2,1.6-0.2,2.4c0,1.5,0.6,2.3,1.5,2.8c0.9,0.5,2.1,0.6,3.5,0.6h2v-5.8H681.3z"/>
				<path class="st1" d="M703.2,265.6c-1.1,0-1.8,0-2.2,0.1c-0.5,0-0.7,0.1-0.8,0.2c-0.3,0.2-0.4,0.5-0.4,0.8c0,0.3,0,0.6,0,0.9
					l0,0.4h4.8v2.4h-7.8V268h0.9c0-0.4,0-0.7,0-1.1c0-1.1,0.2-2.2,1-2.8c0.4-0.3,0.8-0.5,1.4-0.6c0.6-0.1,1.3-0.1,2.3-0.1
					L703.2,265.6z M703.6,298.6c0,0.4,0,0.9,0.1,1.3c0.1,0.4,0.2,0.9,0.4,1.1l-4.4,3.3c-1.2-1.2-1.7-3.1-1.7-4.7v-25.2l5.6-1.9
					V298.6z"/>
			</g>
		</g>
	</g>
</g>
</svg>
